<svg xmlns="http://www.w3.org/2000/svg" viewBox="0 0 38 38"><defs><style>.cls-1{fill:#751d06;}.cls-2{fill:#61ba0c;}.cls-3{fill:#ffce09;}.cls-4{fill:#ef6520;}.cls-5{fill:#e8152a;}</style></defs><g id="Layer_2" data-name="Layer 2"><g id="Layer_1-2" data-name="Layer 1"><rect class="cls-1" x="2" y="24" width="34" height="5"/><path class="cls-2" d="M19,22.42H1.5A1.5,1.5,0,0,0,0,23.92v.46a2.28,2.28,0,0,0,2.29,2.29h0a2.3,2.3,0,0,0,1.44-.51l2.08-1.69a2,2,0,0,1,2.52,0l1.46,1.18a2,2,0,0,0,2.52,0l1.45-1.18a2,2,0,0,1,2.53,0l1.45,1.18a2,2,0,0,0,2.52,0l1.45-1.18a2,2,0,0,1,2.53,0l1.45,1.18a2,2,0,0,0,2.52,0l1.46-1.18a2,2,0,0,1,2.52,0l2.08,1.69a2.3,2.3,0,0,0,1.44.51h0A2.28,2.28,0,0,0,38,24.38v-.46a1.5,1.5,0,0,0-1.5-1.5Z"/><path class="cls-3" d="M35,19.5H3a1.5,1.5,0,0,0,0,3H23.17a1.5,1.5,0,0,1,1.06.44l3.21,3.21a1.52,1.52,0,0,0,2.12,0l3.21-3.21a1.5,1.5,0,0,1,1.06-.44H35a1.5,1.5,0,0,0,0-3Z"/><path class="cls-4" d="M3,28H35a2,2,0,0,1,2,2h0a8,8,0,0,1-8,8H9a8,8,0,0,1-8-8H1A2,2,0,0,1,3,28Z"/><path class="cls-5" d="M1.5,16.5V17A2.5,2.5,0,0,0,4,19.5H34A2.5,2.5,0,0,0,36.5,17v-.5Z"/><path class="cls-4" d="M38,15.94A15.94,15.94,0,0,0,22.06,0H15.94A15.94,15.94,0,0,0,0,15.94H0A1,1,0,0,0,1,17H37a1,1,0,0,0,1-1.06Z"/></g></g></svg>